<svg xmlns="http://www.w3.org/2000/svg" viewBox="0 0 1280 800" width="1280" height="800" font-family="Inter, system-ui, sans-serif">
  <defs>
    <linearGradient id="bg" x1="0" y1="0" x2="1" y2="1"><stop offset="0" stop-color="#0F172A"/><stop offset="1" stop-color="#1E293B"/></linearGradient>
    <linearGradient id="lime" x1="0" y1="0" x2="1" y2="0"><stop offset="0" stop-color="#A3E635"/><stop offset="1" stop-color="#22C55E"/></linearGradient>
    <linearGradient id="yel" x1="0" y1="0" x2="1" y2="0"><stop offset="0" stop-color="#FACC15"/><stop offset="1" stop-color="#F97316"/></linearGradient>
    <linearGradient id="red" x1="0" y1="0" x2="1" y2="0"><stop offset="0" stop-color="#F87171"/><stop offset="1" stop-color="#DC2626"/></linearGradient>
  </defs>
  <rect width="1280" height="800" fill="url(#bg)"/>

  <!-- top bar -->
  <line x1="0" y1="58" x2="1280" y2="58" stroke="#1E293B"/>
  <path d="M40 22 L66 12 L60 38 L56 28 L40 22Z" fill="#3B82F6" stroke="#84CC16" stroke-width="1"/>
  <text x="78" y="36" font-size="16" font-weight="700" fill="#FFFFFF">BlogPilot <tspan fill="#60A5FA">AI</tspan></text>

  <!-- header -->
  <text x="60" y="98" font-size="11" fill="#64748B">← Draft</text>
  <text x="60" y="128" font-size="28" font-weight="700" fill="#FFFFFF">Content Score</text>
  <text x="60" y="150" font-size="13" fill="#94A3B8">Live grading against the top-10 SERP. Pure local TF-IDF — no AI cost.</text>

  <!-- Grade card -->
  <rect x="1000" y="92" width="220" height="100" rx="16" fill="#84CC16" fill-opacity="0.08" stroke="#84CC16" stroke-opacity="0.3"/>
  <text x="1110" y="158" font-size="56" font-weight="700" fill="#A3E635" text-anchor="middle">B</text>
  <text x="1110" y="180" font-size="12" fill="#CBD5E1" text-anchor="middle">78 / 100</text>

  <!-- keyword input -->
  <rect x="60" y="200" width="900" height="44" rx="12" fill="#0F172A" stroke="#334155"/>
  <text x="80" y="228" font-size="13" fill="#FFFFFF">wordpress seo plugins</text>
  <rect x="970" y="200" width="190" height="44" rx="12" fill="#3B82F6"/>
  <text x="1065" y="228" font-size="13" font-weight="600" fill="#FFFFFF" text-anchor="middle">Refresh SERP</text>

  <!-- main grid -->
  <!-- Left editor pane -->
  <rect x="60" y="270" width="720" height="500" rx="20" fill="#0F172A" fill-opacity="0.6" stroke="#1E293B"/>
  <g font-size="12" font-family="JetBrains Mono, monospace" fill="#CBD5E1">
    <text x="84" y="300"># Best WordPress SEO Plugins for 2026</text>
    <text x="84" y="320" fill="#94A3B8"></text>
    <text x="84" y="340">## What is a WordPress SEO plugin?</text>
    <text x="84" y="360" fill="#94A3B8"></text>
    <text x="84" y="380">A WordPress SEO plugin is structured-data and</text>
    <text x="84" y="400">on-page tooling that helps a WordPress site rank</text>
    <text x="84" y="420">in Google. The top options handle <tspan fill="#A3E635">schema markup</tspan>,</text>
    <text x="84" y="440"><tspan fill="#A3E635">XML sitemaps</tspan>, meta titles, and canonical tags.</text>
    <text x="84" y="460" fill="#94A3B8"></text>
    <text x="84" y="480">## Top 5 WordPress SEO plugins</text>
    <text x="84" y="500" fill="#94A3B8"></text>
    <text x="84" y="520">1. <tspan fill="#A3E635">Yoast SEO</tspan> — the original. Strong meta + sitemap.</text>
    <text x="84" y="540">2. <tspan fill="#A3E635">Rank Math</tspan> — competitive feature set, fast UI.</text>
    <text x="84" y="560">3. <tspan fill="#A3E635">All in One SEO</tspan> — solid for beginners.</text>
    <text x="84" y="580">4. SEOPress — privacy-friendly, no upsells.</text>
    <text x="84" y="600">5. The SEO Framework — extremely lightweight.</text>
    <text x="84" y="620" fill="#94A3B8"></text>
    <text x="84" y="640">## How to choose</text>
    <text x="84" y="660" fill="#94A3B8"></text>
    <text x="84" y="680">Consider your site type, technical comfort, and</text>
    <text x="84" y="700">whether you need <tspan fill="#FB923C">content scoring</tspan> built-in...</text>
  </g>
  <!-- caret -->
  <rect x="380" y="688" width="2" height="18" fill="#60A5FA"/>

  <!-- Right sidebar -->
  <g>
    <!-- breakdown -->
    <rect x="800" y="270" width="420" height="220" rx="16" fill="#0F172A" fill-opacity="0.6" stroke="#1E293B"/>
    <text x="820" y="296" font-size="10" fill="#64748B" letter-spacing="1">BREAKDOWN</text>

    <text x="820" y="322" font-size="11" fill="#CBD5E1">Required terms</text>
    <text x="1200" y="322" font-size="10" font-family="JetBrains Mono" fill="#94A3B8" text-anchor="end">18/22 · 40/50</text>
    <rect x="820" y="328" width="380" height="6" rx="3" fill="#1E293B"/>
    <rect x="820" y="328" width="304" height="6" rx="3" fill="url(#lime)"/>

    <text x="820" y="354" font-size="11" fill="#CBD5E1">Recommended terms</text>
    <text x="1200" y="354" font-size="10" font-family="JetBrains Mono" fill="#94A3B8" text-anchor="end">12/18 · 14/20</text>
    <rect x="820" y="360" width="380" height="6" rx="3" fill="#1E293B"/>
    <rect x="820" y="360" width="266" height="6" rx="3" fill="url(#yel)"/>

    <text x="820" y="386" font-size="11" fill="#CBD5E1">Word count</text>
    <text x="1200" y="386" font-size="10" font-family="JetBrains Mono" fill="#94A3B8" text-anchor="end">1450 / 1800 · 12/15</text>
    <rect x="820" y="392" width="380" height="6" rx="3" fill="#1E293B"/>
    <rect x="820" y="392" width="304" height="6" rx="3" fill="url(#lime)"/>

    <text x="820" y="418" font-size="11" fill="#CBD5E1">Heading parity</text>
    <text x="1200" y="418" font-size="10" font-family="JetBrains Mono" fill="#94A3B8" text-anchor="end">2/3 · 7/10</text>
    <rect x="820" y="424" width="380" height="6" rx="3" fill="#1E293B"/>
    <rect x="820" y="424" width="266" height="6" rx="3" fill="url(#yel)"/>

    <text x="820" y="450" font-size="11" fill="#CBD5E1">PAA coverage</text>
    <text x="1200" y="450" font-size="10" font-family="JetBrains Mono" fill="#94A3B8" text-anchor="end">3/5 · 5/5</text>
    <rect x="820" y="456" width="380" height="6" rx="3" fill="#1E293B"/>
    <rect x="820" y="456" width="380" height="6" rx="3" fill="url(#lime)"/>

    <!-- Term chips -->
    <rect x="800" y="510" width="420" height="260" rx="16" fill="#0F172A" fill-opacity="0.6" stroke="#1E293B"/>
    <text x="820" y="536" font-size="10" fill="#64748B" letter-spacing="1">REQUIRED TERMS</text>

    <g font-size="10">
      <rect x="820" y="546" width="100" height="22" rx="11" fill="#84CC16" fill-opacity="0.2" stroke="#84CC16" stroke-opacity="0.3"/>
      <text x="828" y="561" fill="#BBF7D0">schema markup 3/8</text>

      <rect x="928" y="546" width="80" height="22" rx="11" fill="#84CC16" fill-opacity="0.2" stroke="#84CC16" stroke-opacity="0.3"/>
      <text x="936" y="561" fill="#BBF7D0">yoast 2/7</text>

      <rect x="1016" y="546" width="98" height="22" rx="11" fill="#84CC16" fill-opacity="0.2" stroke="#84CC16" stroke-opacity="0.3"/>
      <text x="1024" y="561" fill="#BBF7D0">xml sitemap 1/6</text>

      <rect x="1122" y="546" width="86" height="22" rx="11" fill="#1E293B"/>
      <text x="1130" y="561" fill="#64748B">canonical 0/6</text>

      <rect x="820" y="576" width="106" height="22" rx="11" fill="#84CC16" fill-opacity="0.2" stroke="#84CC16" stroke-opacity="0.3"/>
      <text x="828" y="591" fill="#BBF7D0">rank math 1/5</text>

      <rect x="934" y="576" width="80" height="22" rx="11" fill="#1E293B"/>
      <text x="942" y="591" fill="#64748B">breadcrumbs 0/5</text>

      <rect x="1022" y="576" width="90" height="22" rx="11" fill="#84CC16" fill-opacity="0.2" stroke="#84CC16" stroke-opacity="0.3"/>
      <text x="1030" y="591" fill="#BBF7D0">meta title 4/5</text>

      <rect x="1120" y="576" width="92" height="22" rx="11" fill="#1E293B"/>
      <text x="1128" y="591" fill="#64748B">noindex 0/5</text>

      <text x="820" y="624" font-size="10" fill="#64748B" letter-spacing="1">RECOMMENDED TERMS</text>

      <rect x="820" y="634" width="90" height="22" rx="11" fill="#3B82F6" fill-opacity="0.2" stroke="#3B82F6" stroke-opacity="0.3"/>
      <text x="828" y="649" fill="#BFDBFE">free plugin 2/4</text>

      <rect x="918" y="634" width="84" height="22" rx="11" fill="#3B82F6" fill-opacity="0.2" stroke="#3B82F6" stroke-opacity="0.3"/>
      <text x="926" y="649" fill="#BFDBFE">on-page 3/4</text>

      <rect x="1010" y="634" width="92" height="22" rx="11" fill="#1E293B"/>
      <text x="1018" y="649" fill="#64748B">https setup 0/3</text>

      <rect x="1110" y="634" width="100" height="22" rx="11" fill="#3B82F6" fill-opacity="0.2" stroke="#3B82F6" stroke-opacity="0.3"/>
      <text x="1118" y="649" fill="#BFDBFE">redirect 301 1/3</text>

      <!-- over-optimized callout -->
      <rect x="820" y="675" width="380" height="76" rx="12" fill="#FB923C" fill-opacity="0.08" stroke="#FB923C" stroke-opacity="0.3"/>
      <text x="836" y="694" font-size="10" fill="#FED7AA" letter-spacing="1">OVER-OPTIMIZED · 1</text>
      <text x="836" y="714" font-size="11" font-family="JetBrains Mono" fill="#FB923C">wordpress seo plugin</text>
      <text x="836" y="734" font-size="10" fill="#94A3B8">28× in draft vs median 6× in top-10 — natural prose.</text>
    </g>
  </g>
</svg>
