<svg xmlns="http://www.w3.org/2000/svg" viewBox="0 0 1280 800" width="1280" height="800" font-family="Inter, system-ui, sans-serif">
  <defs>
    <linearGradient id="bg" x1="0" y1="0" x2="1" y2="1"><stop offset="0" stop-color="#0F172A"/><stop offset="1" stop-color="#1E293B"/></linearGradient>
  </defs>
  <rect width="1280" height="800" fill="url(#bg)"/>

  <line x1="0" y1="58" x2="1280" y2="58" stroke="#1E293B"/>
  <path d="M40 22 L66 12 L60 38 L56 28 L40 22Z" fill="#3B82F6" stroke="#84CC16" stroke-width="1"/>
  <text x="78" y="36" font-size="16" font-weight="700" fill="#FFFFFF">BlogPilot <tspan fill="#60A5FA">AI</tspan></text>

  <text x="60" y="98" font-size="11" fill="#64748B">← Client</text>
  <text x="60" y="128" font-size="28" font-weight="700" fill="#FFFFFF">SEO tools</text>
  <text x="60" y="150" font-size="13" fill="#94A3B8">Free-API tools that replace AlsoAsked, SEMrush SERP feature checker, and MarketMuse topic modeling.</text>

  <!-- Tabs -->
  <line x1="60" y1="210" x2="1220" y2="210" stroke="#1E293B"/>
  <text x="60" y="200" font-size="13" font-weight="600" fill="#FFFFFF">PAA tree</text>
  <line x1="56" y1="210" x2="120" y2="210" stroke="#3B82F6" stroke-width="2"/>
  <text x="160" y="200" font-size="13" fill="#94A3B8">SERP features</text>
  <text x="280" y="200" font-size="13" fill="#94A3B8">Topic authority</text>

  <!-- input + button -->
  <rect x="60" y="240" width="1000" height="44" rx="12" fill="#0F172A" stroke="#334155"/>
  <text x="80" y="268" font-size="13" fill="#FFFFFF">wordpress seo</text>
  <rect x="1070" y="240" width="150" height="44" rx="12" fill="#3B82F6"/>
  <text x="1145" y="268" font-size="13" font-weight="600" fill="#FFFFFF" text-anchor="middle">Build tree</text>

  <!-- PAA tree -->
  <rect x="60" y="310" width="1160" height="450" rx="20" fill="#0F172A" fill-opacity="0.6" stroke="#1E293B"/>

  <g font-size="13" fill="#FFFFFF" font-weight="600">
    <text x="84" y="346">wordpress seo</text>
    <text x="356" y="346" font-size="10" fill="#64748B">(6)</text>
  </g>

  <g font-size="12" fill="#CBD5E1">
    <text x="100" y="376">↳ Is WordPress good for SEO?</text>
    <text x="372" y="376" font-size="10" fill="#64748B">(4)</text>
    <text x="116" y="402">↳ Is WordPress better than Wix for SEO?</text>
    <text x="116" y="426">↳ Does WordPress SEO plugin help ranking?</text>
    <text x="116" y="450">↳ How do I check WordPress SEO score?</text>
    <text x="116" y="474">↳ Is WordPress SEO worth learning in 2026?</text>

    <text x="100" y="510">↳ What is the best WordPress SEO plugin?</text>
    <text x="412" y="510" font-size="10" fill="#64748B">(4)</text>
    <text x="116" y="536">↳ Yoast vs Rank Math which is better?</text>
    <text x="116" y="560">↳ Is Yoast SEO premium worth it?</text>
    <text x="116" y="584">↳ How to use Rank Math for beginners?</text>
    <text x="116" y="608">↳ Can I use multiple SEO plugins together?</text>

    <text x="100" y="644">↳ How long does WordPress SEO take to work?</text>
    <text x="395" y="644" font-size="10" fill="#64748B">(3)</text>
    <text x="116" y="670">↳ Why is my WordPress site not ranking?</text>
    <text x="116" y="694">↳ How to track WordPress SEO progress?</text>
    <text x="116" y="718">↳ Should I redo SEO if I change WordPress theme?</text>
  </g>
</svg>
