<svg xmlns="http://www.w3.org/2000/svg" viewBox="0 0 1280 800" width="1280" height="800" font-family="Inter, system-ui, sans-serif">
  <defs>
    <linearGradient id="bg" x1="0" y1="0" x2="1" y2="1"><stop offset="0" stop-color="#0F172A"/><stop offset="1" stop-color="#1E293B"/></linearGradient>
  </defs>
  <rect width="1280" height="800" fill="url(#bg)"/>

  <line x1="0" y1="58" x2="1280" y2="58" stroke="#1E293B"/>
  <path d="M40 22 L66 12 L60 38 L56 28 L40 22Z" fill="#3B82F6" stroke="#84CC16" stroke-width="1"/>
  <text x="78" y="36" font-size="16" font-weight="700" fill="#FFFFFF">BlogPilot <tspan fill="#60A5FA">AI</tspan></text>

  <text x="60" y="98" font-size="11" fill="#64748B">← Draft</text>
  <text x="60" y="128" font-size="28" font-weight="700" fill="#FFFFFF">Distribute</text>

  <g font-size="11">
    <rect x="760" y="106" width="160" height="32" rx="8" fill="#3B82F6"/>
    <text x="840" y="126" fill="#FFFFFF" font-weight="600" text-anchor="middle">Export → WordPress XML</text>
    <rect x="928" y="106" width="100" height="32" rx="8" fill="#3B82F6"/>
    <text x="978" y="126" fill="#FFFFFF" font-weight="600" text-anchor="middle">Ghost JSON</text>
    <rect x="1036" y="106" width="104" height="32" rx="8" fill="#3B82F6"/>
    <text x="1088" y="126" fill="#FFFFFF" font-weight="600" text-anchor="middle">Webflow CSV</text>
    <rect x="1148" y="106" width="72" height="32" rx="8" fill="#3B82F6"/>
    <text x="1184" y="126" fill="#FFFFFF" font-weight="600" text-anchor="middle">Hugo</text>
  </g>

  <!-- Social pack -->
  <rect x="60" y="170" width="700" height="600" rx="16" fill="#0F172A" fill-opacity="0.6" stroke="#1E293B"/>
  <text x="80" y="200" font-size="14" font-weight="600" fill="#FFFFFF">Social repurposes</text>
  <rect x="640" y="180" width="100" height="28" rx="8" fill="#84CC16"/>
  <text x="690" y="198" font-size="11" fill="#0F172A" font-weight="600" text-anchor="middle">Regenerate</text>

  <text x="80" y="232" font-size="9" letter-spacing="1" fill="#64748B">X / TWITTER THREAD</text>
  <g font-family="JetBrains Mono, monospace" font-size="10" fill="#CBD5E1">
    <rect x="80" y="240" width="660" height="28" rx="6" fill="#0F172A" stroke="#1E293B"/>
    <text x="92" y="258">Most posts on WordPress SEO skip the part that actually moves the needle.</text>

    <rect x="80" y="274" width="660" height="28" rx="6" fill="#0F172A" stroke="#1E293B"/>
    <text x="92" y="292">What you'll learn in "Best WordPress SEO Plugins 2026":</text>

    <rect x="80" y="308" width="660" height="28" rx="6" fill="#0F172A" stroke="#1E293B"/>
    <text x="92" y="326">1. The single setting most guides miss (it's not Yoast vs Rank Math).</text>

    <rect x="80" y="342" width="660" height="28" rx="6" fill="#0F172A" stroke="#1E293B"/>
    <text x="92" y="360">2. The mistake that quietly kills ranking even with a "perfect" plugin.</text>

    <rect x="80" y="376" width="660" height="28" rx="6" fill="#0F172A" stroke="#1E293B"/>
    <text x="92" y="394">Full breakdown: https://dicecodes.com/blog/wordpress-seo-plugins</text>
  </g>

  <text x="80" y="430" font-size="9" letter-spacing="1" fill="#64748B">LINKEDIN</text>
  <rect x="80" y="438" width="660" height="120" rx="6" fill="#0F172A" stroke="#1E293B"/>
  <g font-family="JetBrains Mono, monospace" font-size="10" fill="#CBD5E1">
    <text x="92" y="458">Most posts on WordPress SEO skip the part that moves the needle.</text>
    <text x="92" y="490">I spent the last few weeks digging into how ranking changes when</text>
    <text x="92" y="504">you switch plugins. Three things stood out:</text>
    <text x="92" y="524">- The dominant advice is incomplete.</text>
    <text x="92" y="538">- The few who get it right share a specific pattern...</text>
  </g>

  <text x="80" y="588" font-size="9" letter-spacing="1" fill="#64748B">INSTAGRAM</text>
  <rect x="80" y="596" width="660" height="60" rx="6" fill="#0F172A" stroke="#1E293B"/>
  <g font-family="JetBrains Mono, monospace" font-size="10" fill="#CBD5E1">
    <text x="92" y="618">Most WordPress SEO advice skips the real win. New post 👇</text>
    <text x="92" y="638">#wordpressseo #seo #blogging #marketing #yoast</text>
  </g>

  <text x="80" y="688" font-size="9" letter-spacing="1" fill="#64748B">PINTEREST</text>
  <rect x="80" y="696" width="660" height="34" rx="6" fill="#0F172A" stroke="#1E293B"/>
  <text x="92" y="718" font-family="JetBrains Mono, monospace" font-size="10" fill="#CBD5E1">Best WordPress SEO Plugins 2026 · the complete guide. Save for later.</text>

  <text x="80" y="752" font-size="9" letter-spacing="1" fill="#64748B">WHATSAPP / TELEGRAM</text>
  <text x="80" y="770" font-family="JetBrains Mono, monospace" font-size="10" fill="#CBD5E1">Hey — just published a new piece on WordPress SEO plugins...</text>

  <!-- Right column -->
  <rect x="780" y="170" width="440" height="280" rx="16" fill="#0F172A" fill-opacity="0.6" stroke="#1E293B"/>
  <text x="800" y="200" font-size="14" font-weight="600" fill="#FFFFFF">Newsletter</text>
  <rect x="1100" y="180" width="100" height="28" rx="8" fill="#84CC16"/>
  <text x="1150" y="198" font-size="11" fill="#0F172A" font-weight="600" text-anchor="middle">Regenerate</text>

  <text x="800" y="230" font-size="9" letter-spacing="1" fill="#64748B">SHORT</text>
  <rect x="800" y="238" width="400" height="50" rx="6" fill="#0F172A" stroke="#1E293B"/>
  <g font-family="JetBrains Mono, monospace" font-size="10" fill="#CBD5E1">
    <text x="812" y="258">New: Best WordPress SEO Plugins 2026.</text>
    <text x="812" y="276">The setting most guides skip. Read →</text>
  </g>

  <text x="800" y="312" font-size="9" letter-spacing="1" fill="#64748B">LONG</text>
  <rect x="800" y="320" width="400" height="120" rx="6" fill="#0F172A" stroke="#1E293B"/>
  <g font-family="JetBrains Mono, monospace" font-size="10" fill="#CBD5E1">
    <text x="812" y="340">Most guides on WordPress SEO skip the part</text>
    <text x="812" y="354">that matters.</text>
    <text x="812" y="378">I rebuilt my approach after seeing it fail</text>
    <text x="812" y="392">on a real project, then dug into what</text>
    <text x="812" y="406">actually works for top results in 2026...</text>
    <text x="812" y="430">Full read here: dicecodes.com/blog/...</text>
  </g>

  <!-- Share link panel -->
  <rect x="780" y="470" width="440" height="220" rx="16" fill="#0F172A" fill-opacity="0.6" stroke="#1E293B"/>
  <text x="800" y="500" font-size="14" font-weight="600" fill="#FFFFFF">Client portal share link</text>
  <text x="800" y="524" font-size="11" fill="#94A3B8">Generate a read-only URL the client can open</text>
  <text x="800" y="540" font-size="11" fill="#94A3B8">without an account. 30-day expiry.</text>

  <rect x="800" y="556" width="160" height="32" rx="8" fill="#3B82F6"/>
  <text x="880" y="576" font-size="11" font-weight="600" fill="#FFFFFF" text-anchor="middle">Create share link</text>

  <rect x="800" y="600" width="400" height="40" rx="6" fill="#0F172A" stroke="#334155"/>
  <text x="812" y="624" font-family="JetBrains Mono, monospace" font-size="10" fill="#A3E635">http://localhost:3000/p/L7HtJX85hsoqAZXwHorPADJfy4-6wIXl</text>

  <text x="800" y="664" font-size="10" fill="#64748B">No auth required. Token revocable. Read-only client view.</text>
</svg>
